<?xml version="1.0" encoding="UTF-8" standalone="no"?>
<!-- Created with Inkscape (http://www.inkscape.org/) -->
<?xml-stylesheet type="text/css" href="svg.css" ?>
<!DOCTYPE svg PUBLIC "-//W3C//DTD SVG 1.1//EN" 
  "http://www.w3.org/Graphics/SVG/1.1/DTD/svg11.dtd">
<svg
   xmlns:dc="http://purl.org/dc/elements/1.1/"
   xmlns:cc="http://creativecommons.org/ns#"
   xmlns:rdf="http://www.w3.org/1999/02/22-rdf-syntax-ns#"
   xmlns:svg="http://www.w3.org/2000/svg"
   xmlns="http://www.w3.org/2000/svg"
   version="1.1"
   width="128"
   height="128"
   id="svg4474"
   viewBox="0 0 128 128">
  <defs
     id="defs4476" />
  <metadata
     id="metadata4479">
    <rdf:RDF>
      <cc:Work
         rdf:about="">
        <dc:format>image/svg+xml</dc:format>
        <dc:type
           rdf:resource="http://purl.org/dc/dcmitype/StillImage" />
        <dc:title></dc:title>
      </cc:Work>
    </rdf:RDF>
  </metadata>
  <g
     transform="translate(0,-924.36218)"
     id="layer1">
    <g
       id="logo">
      <path
         d="m 63.999999,930.16218 c -32.093222,0 -58.1999952,26.10677 -58.1999952,58.19999 0,32.09323 26.1067732,58.20003 58.1999952,58.20003 32.093217,0 58.199991,-26.1068 58.199991,-58.20003 0,-32.09322 -26.106774,-58.19999 -58.199991,-58.19999 z m 0,8.4 c 27.553522,0 49.799991,22.24647 49.799991,49.79999 0,27.55353 -22.246469,49.80003 -49.799991,49.80003 -27.553525,0 -49.799996,-22.2465 -49.799996,-49.80003 0,-27.55352 22.246471,-49.79999 49.799996,-49.79999 z"
         id="path5132"
         style="font-size:medium;font-style:normal;font-variant:normal;font-weight:normal;font-stretch:normal;text-indent:0;text-align:start;text-decoration:none;line-height:normal;letter-spacing:normal;word-spacing:normal;text-transform:none;direction:ltr;block-progression:tb;writing-mode:lr-tb;text-anchor:start;baseline-shift:baseline;fill-rule:nonzero;stroke:none;stroke-width:2;marker:none;visibility:visible;display:inline;overflow:visible;enable-background:accumulate;font-family:Sans;-inkscape-font-specification:Sans" />
      <path
         d="m 35.96875,950.48718 -3.8125,3.84375 10.03125,10.03125 -10.03125,10 3.8125,3.84375 L 46,968.17468 l 10.03125,10.03125 3.8125,-3.8125 L 49.8125,964.36218 59.84375,954.33093 56.03125,950.48718 46,960.51843 35.96875,950.48718 z"
         id="path6119"
         style="font-size:medium;font-style:normal;font-variant:normal;font-weight:normal;font-stretch:normal;text-indent:0;text-align:start;text-decoration:none;line-height:normal;letter-spacing:normal;word-spacing:normal;text-transform:none;direction:ltr;block-progression:tb;writing-mode:lr-tb;text-anchor:start;baseline-shift:baseline;stroke:none;stroke-width:2;marker:none;visibility:visible;display:inline;overflow:visible;enable-background:accumulate;font-family:Sans;-inkscape-font-specification:Sans" />
      <path
         d="m 81.958748,949.72968 c -8.066859,0 -14.666249,6.59564 -14.666249,14.6625 0,8.06685 6.59939,14.66624 14.666249,14.66624 8.066861,0 14.662492,-6.59939 14.662504,-14.66624 0,-8.06686 -6.595643,-14.6625 -14.662504,-14.6625 z m 0,5.4 c 5.148481,0 9.262505,4.11401 9.262505,9.2625 0,5.14848 -4.114024,9.26625 -9.262505,9.26625 -5.148482,0 -9.26625,-4.11777 -9.26625,-9.26625 0,-5.14849 4.117768,-9.2625 9.26625,-9.2625 z"
         id="path9030"
         style="font-size:medium;font-style:normal;font-variant:normal;font-weight:normal;font-stretch:normal;text-indent:0;text-align:start;text-decoration:none;line-height:normal;letter-spacing:normal;word-spacing:normal;text-transform:none;direction:ltr;block-progression:tb;writing-mode:lr-tb;text-anchor:start;baseline-shift:baseline;;fill-rule:nonzero;stroke:none;stroke-width:2;marker:none;visibility:visible;display:inline;overflow:visible;enable-background:accumulate;font-family:Sans;-inkscape-font-specification:Sans" />
      <path
         d="m 34,997.58093 0,5.40627 30.53125,0 0,9.4375 c 0,4.358 1.950593,7.9681 4.78125,10.2187 2.830657,2.2507 6.422595,3.2634 9.96875,3.25 3.546155,-0.013 7.113678,-1.0508 9.9375,-3.3125 C 92.042572,1020.3191 94,1016.7081 94,1012.3622 l 0,-9.375 0,-2.625 0,-2.78127 -60,0 z m 35.9375,5.40627 18.65625,0 0,9.375 c 0,2.8389 -1.062572,4.6485 -2.75,6 -1.687428,1.3515 -4.124905,2.1157 -6.59375,2.125 -2.468845,0.01 -4.881907,-0.7263 -6.5625,-2.0625 -1.680593,-1.3362 -2.75,-3.1425 -2.75,-6 l 0,-9.4375 z"
         id="path10005"
         style="font-size:medium;font-style:normal;font-variant:normal;font-weight:normal;font-stretch:normal;text-indent:0;text-align:start;text-decoration:none;line-height:normal;letter-spacing:normal;word-spacing:normal;text-transform:none;direction:ltr;block-progression:tb;writing-mode:lr-tb;text-anchor:start;baseline-shift:baseline;stroke:none;stroke-width:2;marker:none;visibility:visible;display:inline;overflow:visible;enable-background:accumulate;font-family:Sans;-inkscape-font-specification:Sans" />
    </g>
  </g>
</svg>
